<svg xmlns="http://www.w3.org/2000/svg" viewBox="0 0 100 78" fill="white">
  <path d="M40.7 0v61.6L57.2 67V51.3l-8.2-2.9V4.5c0-1.2.3-1.8 1.3-1.5 1.4.4 5.5 2.6 5.5 2.6 5.5 2.7 11.6 7 14 12.1 2.7 5.8.7 10.3-6.2 12.8-6.3 2.4-13 3.1-20.9 1v6.8c7.2 1.9 14.5 1.4 18.3-.9 4.3-2.6 3.8-6.8-1-9.7-4.6-2.9-10.2-4.8-15-6L40.7 0zM66 57.6c-3.9-.9-6-.3-9.2.7L43 63.2v8.4l19.8-7c1.9-.7 4.3-.7 4.8.3.7 1-.7 2-2.6 2.7L43 75.5v8.5l.9-.3 16.2-5.8c5.5-1.9 11.4-4.4 12.8-8.7 1.4-4.5-.7-9.2-6.9-11.6zM9.9 55.4c-2.7 1.7-1.4 4.6 4.1 6.2 6 2 12.5 2.5 18.8 1.4.5 0 .9-.3.9-.3V55.3l-6.2 2.1c-2.2.7-4.4.8-6 .2-1.7-.7-1.2-2.1 1-2.9l11.1-3.9v-8.2l-15.4 5.5C15 50 12.1 52.6 9.9 55.4z"/>
</svg>
